<?xml version="1.0" encoding="UTF-8"?>
<svg width="600px" height="600px" viewBox="0 0 600 600" version="1.1" xmlns="http://www.w3.org/2000/svg" xmlns:xlink="http://www.w3.org/1999/xlink" style="background: #171819;">
    <!-- Generator: Sketch 43.2 (39069) - http://www.bohemiancoding.com/sketch -->
    <title>header</title>
    <desc>Created with Sketch.</desc>
    <defs>
        <ellipse id="path-1" cx="198.661799" cy="198.839122" rx="198.661799" ry="198.839122"></ellipse>
        <polygon id="path-2" points="88.9181578 178.482125 88.9181578 0.75587334 0.191522247 267.34525 87.1436251 267.34525 87.1436251 445.071502 175.870261 178.482125 88.9181578 178.482125"></polygon>
    </defs>
    <g id="Page-1" stroke="none" stroke-width="1" fill="none" fill-rule="evenodd">
        <g id="header">
            <g id="bg_pulse" transform="translate(34.148364, 34.000000)" fill="#FFEA80" opacity="0.0399999991">
                <ellipse id="Oval-10" cx="267.925818" cy="268.164964" rx="267.925818" ry="268.164964"></ellipse>
                <ellipse id="Oval-10-Copy-7" cx="268.240654" cy="268.480082" rx="232.349299" ry="232.556691"></ellipse>
                <ellipse id="Oval-10-Copy-8" cx="268.240654" cy="268.480082" rx="218.496495" ry="218.691522"></ellipse>
            </g>
            <g id="circles" transform="translate(104.042056, 103.956078)">
                <ellipse id="Oval-10-Copy" fill="#0B0C0C" opacity="0.19750679" cx="198.661799" cy="205.141471" rx="198.661799" ry="198.839122"></ellipse>
                <g id="Oval-10-Copy-9">
                    <use fill="#2A2E2F" fill-rule="evenodd" xlink:href="#path-1"></use>
                    <ellipse stroke="#2D3233" stroke-width="3.15" cx="198.661799" cy="198.839122" rx="197.086799" ry="197.264122"></ellipse>
                </g>
            </g>
            <g id="flash" transform="translate(303.664011, 307.361644) rotate(15.000000) translate(-303.664011, -307.361644) translate(211.102095, 79.846833)">
                <polygon id="Combined-Shape" fill="#1F1D11" opacity="0.5" points="98.0682354 188.270287 98.0682354 10.5440359 9.34159989 277.133413 96.2937027 277.133413 96.2937027 454.859664 185.020338 188.270287 98.0682354 188.270287"></polygon>
                <polygon id="Combined-Shape-Copy-5" fill="#E6CB45" points="88.7266355 177.726251 88.7266355 -5.64239156e-13 2.07598009e-12 266.589377 86.9521028 266.589377 86.9521028 444.315628 175.678738 177.726251 88.7266355 177.726251"></polygon>
                <polygon id="Combined-Shape-Copy-2" fill="#FFEA7F" points="88.664465 180.839561 88.664465 15.5665487 6.1548851 263.476067 87.0142734 263.476067 87.0142734 428.749079 169.523853 180.839561 88.664465 180.839561"></polygon>
                <polygon id="Combined-Shape-Copy-3" fill="#FFF7CC" points="88.5508871 186.527188 88.5508871 44.0046824 17.3990888 257.78844 87.1278512 257.78844 87.1278512 400.310946 158.279649 186.527188 88.5508871 186.527188"></polygon>
                <polygon id="Combined-Shape-Copy-4" fill="#FFFBE6" points="88.3218608 197.996119 88.3218608 101.349338 40.072693 246.319509 87.3568775 246.319509 87.3568775 342.966291 135.606045 197.996119 88.3218608 197.996119"></polygon>
            </g>
            <g id="shine" transform="translate(299.818925, 301.621042) rotate(15.000000) translate(-299.818925, -301.621042) translate(211.818925, 78.621042)">
                <mask id="mask-3" fill="white">
                    <use xlink:href="#path-2"></use>
                </mask>
                <use id="Mask" fill="#E6CB45" opacity="0.01" xlink:href="#path-2"></use>
                <g id="Group-6" mask="url(#mask-3)" fill="#FFFFFF" opacity="0.460711051">
                    <g transform="translate(-121.000000, 4.537283)">
                        <rect id="Rectangle-2" transform="translate(217.826419, 90.344015) rotate(-15.000000) translate(-217.826419, -90.344015) " x="1.84861539" y="54.7357412" width="431.955607" height="71.2165475"></rect>
                        <rect id="Rectangle-2-Copy" transform="translate(225.761936, 138.893248) rotate(-15.000000) translate(-225.761936, -138.893248) " x="9.78413181" y="133.972822" width="431.955607" height="9.84085133"></rect>
                    </g>
                </g>
                <g id="Group-6-Copy" mask="url(#mask-3)" fill="#FFFFFF" opacity="0.460711051">
                    <g transform="translate(-121.000000, 231.421859)">
                        <rect id="Rectangle-2" transform="translate(217.826419, 90.344015) rotate(-15.000000) translate(-217.826419, -90.344015) " x="1.84861539" y="54.7357412" width="431.955607" height="71.2165475"></rect>
                        <rect id="Rectangle-2-Copy" transform="translate(225.761936, 138.893248) rotate(-15.000000) translate(-225.761936, -138.893248) " x="9.78413181" y="133.972822" width="431.955607" height="9.84085133"></rect>
                    </g>
                </g>
            </g>
            <g id="distortion" transform="translate(31.000000, 34.630235)" fill="#B8C2CC" opacity="0.049999997">
                <ellipse id="Oval-10-Copy-2" cx="429.751752" cy="96.7410623" rx="73.3568925" ry="73.4223698"></ellipse>
                <ellipse id="Oval-10-Copy-5" cx="479.495911" cy="28.6756895" rx="28.6501168" ry="28.6756895"></ellipse>
                <ellipse id="Oval-10-Copy-3" cx="118.063668" cy="415.009704" rx="58.244743" ry="58.2967314"></ellipse>
                <ellipse id="Oval-10-Copy-4" cx="51.3183411" cy="496.940245" rx="19.8346963" ry="19.8524004"></ellipse>
                <ellipse id="Oval-10-Copy-6" cx="30.5391355" cy="522.149642" rx="30.5391355" ry="30.5663943"></ellipse>
            </g>
        </g>
    </g>
</svg>