<svg width="600" height="600" viewBox="0 0 600 600" xmlns="http://www.w3.org/2000/svg" xmlns:xlink="http://www.w3.org/1999/xlink" style="background:#171819"><title>header</title><defs><ellipse id="a" cx="198.662" cy="198.839" rx="198.662" ry="198.839"/><path id="b" d="M88.918 178.482V.756L.192 267.346h86.952v177.726l88.726-266.59H88.918z"/></defs><g fill="none" fill-rule="evenodd"><g transform="translate(34.148 34)" fill="#FFEA80" opacity=".04"><ellipse cx="267.926" cy="268.165" rx="267.926" ry="268.165"/><ellipse cx="268.241" cy="268.48" rx="232.349" ry="232.557"/><ellipse cx="268.241" cy="268.48" rx="218.496" ry="218.692"/></g><g transform="translate(104.042 103.956)"><ellipse fill="#0B0C0C" opacity=".198" cx="198.662" cy="205.141" rx="198.662" ry="198.839"/><use fill="#2A2E2F" xlink:href="#a"/><ellipse stroke="#2D3233" stroke-width="3.15" cx="198.662" cy="198.839" rx="197.087" ry="197.264"/></g><path fill="#1F1D11" opacity=".5" d="M319.14 270.88l45.999-171.67-154.702 234.54 83.99 22.505-46 171.67 154.702-234.54-83.99-22.506z"/><path fill="#E6CB45" d="M312.846 258.277l45.999-171.67-154.702 234.541 83.99 22.505-46 171.67 154.702-234.541-83.99-22.505z"/><path fill="#FFEA7F" d="M311.98 261.268l42.776-159.641-143.862 218.107 78.104 20.928-42.776 159.641 143.862-218.107-78.104-20.928z"/><path fill="#FFF7CC" d="M310.398 266.733l36.888-137.667-124.06 188.084 67.354 18.047-36.888 137.666L377.751 284.78l-67.353-18.047z"/><path fill="#FFFBE6" d="M307.208 277.751l25.014-93.353-84.126 127.542 45.673 12.238-25.014 93.354 84.126-127.543-45.673-12.238z"/><g transform="rotate(15 -104.684 1066.773)"><mask id="c" fill="#fff"><use xlink:href="#b"/></mask><use fill="#E6CB45" opacity=".01" xlink:href="#b"/><g mask="url(#c)" fill="#FFF" opacity=".461"><path d="M-121.008 116.386L296.23 4.587l18.432 68.79-417.237 111.799zM-105.13 194.577L312.107 82.78l2.547 9.505-417.237 111.799z"/></g><g mask="url(#c)" fill="#FFF" opacity=".461"><path d="M-121.008 343.27L296.23 231.472l18.432 68.79-417.237 111.799zM-105.13 421.462l417.237-111.799 2.547 9.506-417.237 111.798z"/></g></g><g transform="translate(31 34.63)" fill="#B8C2CC" opacity=".05"><ellipse cx="429.752" cy="96.741" rx="73.357" ry="73.422"/><ellipse cx="479.496" cy="28.676" rx="28.65" ry="28.676"/><ellipse cx="118.064" cy="415.01" rx="58.245" ry="58.297"/><ellipse cx="51.318" cy="496.94" rx="19.835" ry="19.852"/><ellipse cx="30.539" cy="522.15" rx="30.539" ry="30.566"/></g></g></svg>